{
	"asset":{
		"generator":"Khronos glTF Blender I/O v4.4.56",
		"version":"2.0"
	},
	"scene":0,
	"scenes":[
		{
			"name":"Scene",
			"nodes":[
				0
			]
		}
	],
	"nodes":[
		{
			"mesh":0,
			"name":"gun"
		}
	],
	"materials":[
		{
			"doubleSided":true,
			"name":"Material.003"
		}
	],
	"meshes":[
		{
			"name":"Circle.001",
			"primitives":[
				{
					"attributes":{
						"POSITION":0,
						"NORMAL":1,
						"TEXCOORD_0":2
					},
					"indices":3,
					"material":0
				}
			]
		}
	],
	"accessors":[
		{
			"bufferView":0,
			"componentType":5126,
			"count":2926,
			"max":[
				0.34814518690109253,
				0.606628954410553,
				1.4183931350708008
			],
			"min":[
				-0.2897122800350189,
				-1.4262235164642334,
				-3.1095709800720215
			],
			"type":"VEC3"
		},
		{
			"bufferView":1,
			"componentType":5126,
			"count":2926,
			"type":"VEC3"
		},
		{
			"bufferView":2,
			"componentType":5126,
			"count":2926,
			"type":"VEC2"
		},
		{
			"bufferView":3,
			"componentType":5123,
			"count":10698,
			"type":"SCALAR"
		}
	],
	"bufferViews":[
		{
			"buffer":0,
			"byteLength":35112,
			"byteOffset":0,
			"target":34962
		},
		{
			"buffer":0,
			"byteLength":35112,
			"byteOffset":35112,
			"target":34962
		},
		{
			"buffer":0,
			"byteLength":23408,
			"byteOffset":70224,
			"target":34962
		},
		{
			"buffer":0,
			"byteLength":21396,
			"byteOffset":93632,
			"target":34963
		}
	],
	"buffers":[
		{
			"byteLength":115028,
			"uri":"gun.bin"
		}
	]
}
