{
	"asset":{
		"generator":"Khronos glTF Blender I/O v4.4.56",
		"version":"2.0"
	},
	"extensionsUsed":[
		"KHR_materials_specular"
	],
	"scene":0,
	"scenes":[
		{
			"name":"Scene",
			"nodes":[
				0
			]
		}
	],
	"nodes":[
		{
			"mesh":0,
			"name":"Balloon"
		}
	],
	"materials":[
		{
			"doubleSided":true,
			"extensions":{
				"KHR_materials_specular":{
					"specularTexture":{
						"index":0
					}
				}
			},
			"name":"Balloon",
			"normalTexture":{
				"index":1,
				"scale":0.30000001192092896
			},
			"pbrMetallicRoughness":{
				"baseColorTexture":{
					"index":2
				},
				"roughnessFactor":0.858578622341156
			}
		}
	],
	"meshes":[
		{
			"name":"Mesh",
			"primitives":[
				{
					"attributes":{
						"POSITION":0,
						"NORMAL":1,
						"TEXCOORD_0":2
					},
					"indices":3,
					"material":0
				}
			]
		}
	],
	"textures":[
		{
			"sampler":0,
			"source":0
		},
		{
			"sampler":0,
			"source":1
		},
		{
			"sampler":0,
			"source":2
		}
	],
	"images":[
		{
			"mimeType":"image/png",
			"name":"BalloonRough",
			"uri":"BalloonRough.png"
		},
		{
			"mimeType":"image/png",
			"name":"BalloonNormal",
			"uri":"BalloonNormal.png"
		},
		{
			"mimeType":"image/png",
			"name":"BalloonAlbedo",
			"uri":"BalloonAlbedo.png"
		}
	],
	"accessors":[
		{
			"bufferView":0,
			"componentType":5126,
			"count":759,
			"max":[
				3.3712992668151855,
				5.058937072753906,
				3.3712990283966064
			],
			"min":[
				-3.3712992668151855,
				-5.058937072753906,
				-3.3712990283966064
			],
			"type":"VEC3"
		},
		{
			"bufferView":1,
			"componentType":5126,
			"count":759,
			"type":"VEC3"
		},
		{
			"bufferView":2,
			"componentType":5126,
			"count":759,
			"type":"VEC2"
		},
		{
			"bufferView":3,
			"componentType":5123,
			"count":3612,
			"type":"SCALAR"
		}
	],
	"bufferViews":[
		{
			"buffer":0,
			"byteLength":9108,
			"byteOffset":0,
			"target":34962
		},
		{
			"buffer":0,
			"byteLength":9108,
			"byteOffset":9108,
			"target":34962
		},
		{
			"buffer":0,
			"byteLength":6072,
			"byteOffset":18216,
			"target":34962
		},
		{
			"buffer":0,
			"byteLength":7224,
			"byteOffset":24288,
			"target":34963
		}
	],
	"samplers":[
		{
			"magFilter":9729,
			"minFilter":9987
		}
	],
	"buffers":[
		{
			"byteLength":31512,
			"uri":"Untitled.bin"
		}
	]
}
